# This file uses centimeters as units for non-parametric coordinates.

mtllib flyman_export.mtl
g default
v -0.553049 5.457678 1.138824
v -0.827205 8.169354 0.892740
v -0.852594 8.101571 -1.453671
v -0.708568 5.375759 -1.398502
v 0.000011 8.427766 1.242004
v 0.000011 8.397229 -1.780132
v -0.000014 5.295284 -1.829878
v -0.000014 5.295284 1.562903
v 0.000007 8.770326 -0.741591
v -0.000001 8.782496 0.155056
v -1.122544 8.462128 0.133949
v -1.099119 8.377837 -0.698225
v -0.658065 5.267744 0.116289
v -0.981195 5.295284 -0.594137
v -0.000055 5.033511 0.780899
v -0.677244 4.759976 -1.497946
v -0.000014 4.778361 -1.829878
v -0.981195 5.116671 -0.560159
v -0.547907 4.778361 0.410663
v -0.000055 4.778435 0.780899
v 0.000000 7.261332 1.691668
v -0.000009 6.126438 1.790881
v -1.228092 6.205963 1.236104
v -1.241988 7.282786 1.139325
v -1.640260 6.213392 0.283243
v -1.617753 7.309476 0.231643
v -1.190912 7.305936 -1.683751
v -1.237614 6.232050 -1.629078
v -0.000014 6.272062 -2.160712
v -0.000003 7.356567 -2.213625
v -1.586666 7.305563 -0.687968
v -1.606956 6.223938 -0.652590
v -1.233133 4.640762 -1.134848
v -1.517815 4.895192 -0.532245
v -1.306632 4.680224 0.174216
v -0.782657 4.009233 1.085247
v -0.000128 4.009307 1.333849
v -1.263444 4.009233 0.365133
v -0.556506 1.424929 0.842482
v -0.000259 1.546180 1.336094
v -1.599045 1.420104 0.449082
v -0.000057 3.964398 -1.857380
v -0.738111 3.969674 -1.724117
v -1.125651 3.886760 -1.308872
v -0.846772 1.962633 1.423230
v -0.896824 2.863503 1.549969
v 0.008733 2.861698 1.923984
v -0.002369 2.025384 1.790542
v -1.653595 1.972879 0.690201
v -1.618995 2.884260 0.737583
v -0.421974 1.447585 -1.345518
v -0.000024 1.442310 -1.509794
v -1.501457 1.447586 -1.097427
v -0.833587 0.169373 -0.753542
v -1.121240 0.169373 -0.738923
v -0.839148 0.169362 -0.451194
v -1.091693 0.169362 -0.474573
v -0.787328 1.981135 -1.697824
v -0.781654 2.842553 -1.764652
v -0.000084 1.979925 -1.831181
v -0.000120 2.837152 -1.897919
v -1.472496 2.842429 -1.336931
v -1.561840 1.981262 -1.250038
v -1.782384 1.977285 -0.299018
v -1.753440 2.863171 -0.342161
v -1.541734 3.611385 -0.495074
v -1.732298 1.424100 -0.386285
v -1.156350 0.169368 -0.597081
v -0.179165 1.267688 -0.544477
v -0.790384 0.169368 -0.573621
v -0.000025 1.267688 -0.544477
v -3.873749 4.391001 -0.707499
v -3.885654 4.481428 -0.492325
v -3.876823 4.405026 -0.242244
v -3.875016 4.166548 -0.174390
v -3.869254 4.123020 -0.769349
v -3.886654 4.025149 -0.435126
v -4.232079 4.310621 -0.685367
v -4.347272 4.361975 -0.477033
v -4.235152 4.325577 -0.266262
v -4.233346 4.211965 -0.244397
v -4.227584 4.199502 -0.688002
v -4.348272 4.144601 -0.463822
v -0.884548 0.025137 -0.753542
v -1.090724 0.025137 -0.738923
v -0.839148 0.025126 -0.451194
v -1.122246 0.025126 -0.474573
v -0.828218 0.025132 -0.601069
v -1.129466 0.025132 -0.600907
v -0.870936 0.169362 -0.106691
v -1.070895 0.169362 -0.130070
v -1.122246 0.025126 -0.099092
v -0.839148 0.025126 -0.075713
v -2.592884 4.542975 -0.033485
v -2.384638 4.565265 0.000248
v -2.368423 4.075112 0.139199
v -2.575836 4.087597 0.096380
v -2.475434 3.781972 -0.437430
v -2.682718 3.818682 -0.431351
v -2.314971 3.986267 -1.081637
v -2.523192 4.004170 -1.040755
v -2.355528 4.536137 -0.955831
v -2.565411 4.516304 -0.921897
v -2.466669 4.724262 -0.525046
v -2.673488 4.688011 -0.521749
v -1.377353 0.744667 -0.031177
v -1.450322 0.861719 0.062040
v -0.657627 0.851720 0.257154
v -0.694536 0.765235 0.141810
v -0.408476 0.868984 -0.579051
v -0.520631 0.744419 -0.596906
v -0.583561 0.873798 -1.110367
v -0.649055 0.747752 -1.068790
v -1.384798 0.877155 -0.910649
v -1.371430 0.741722 -0.888649
v -1.529885 0.876774 -0.487705
v -1.433973 0.744665 -0.496201
vt 0.491820 0.250000
vt 0.375000 0.328389
vt 0.375000 0.441848
vt 0.491820 0.428778
vt 0.375000 0.500000
vt 0.491820 0.906598
vt 0.491820 1.000000
vt 0.375000 1.000000
vt 0.491820 0.750000
vt 0.375000 0.812785
vt 0.491820 0.338632
vt 0.489307 0.380832
vt 0.392298 0.383708
vt 0.375000 0.917908
vt 0.399847 0.866292
vt 0.375000 0.750000
vt 0.491820 0.750000
vt 0.375000 0.812785
vt 0.375000 0.917908
vt 0.399847 0.866292
vt 0.491820 0.906598
vt 0.375000 0.000000
vt 0.491820 0.000000
vt 0.375000 0.179051
vt 0.491820 0.172338
vt 0.375000 0.250000
vt 0.291154 0.086146
vt 0.241292 0.084461
vt 0.241292 0.000000
vt 0.292908 0.000000
vt 0.292441 0.172097
vt 0.189042 0.174120
vt 0.183152 0.250000
vt 0.125000 0.250000
vt 0.491820 0.665978
vt 0.375000 0.750000
vt 0.491820 0.500000
vt 0.491820 0.571539
vt 0.375000 0.559510
vt 0.296611 0.250000
vt 0.241292 0.246850
vt 0.187785 0.000000
vt 0.190844 0.087009
vt 0.125000 0.085095
vt 0.125000 0.000000
vt 0.491820 0.081114
vt 0.467931 0.130991
vt 0.394648 0.130991
vt 0.375000 0.075407
vt 0.369637 0.130991
vt 0.307973 0.130991
vt 0.288809 0.131179
vt 0.245289 0.176537
vt 0.247561 0.136572
vt 0.125000 0.190490
vt 0.127264 0.130991
vt 0.177036 0.130991
vt 0.375000 0.664905
vt 0.399709 0.619009
vt 0.472814 0.619008
vt 0.000000 0.000000
vt 1.000000 0.000000
vt 1.000000 1.000000
vt 0.000000 1.000000
vt 0.000000 0.000000
vt 1.000000 0.000000
vt 1.000000 1.000000
vt 0.000000 1.000000
vt 0.000000 0.000000
vt 1.000000 0.000000
vt 1.000000 1.000000
vt 0.000000 1.000000
vt 0.000000 0.000000
vt 1.000000 1.000000
vt 0.000000 1.000000
vt 0.000000 0.000000
vt 1.000000 0.000000
vt 0.000000 0.000000
vt 1.000000 0.000000
vt 1.000000 0.330861
vt 0.000000 0.330861
vt 0.000000 0.330861
vt 0.000000 0.000000
vt 1.000000 0.000000
vt 0.000000 0.619698
vt 0.000000 0.499950
vt 1.000000 0.492711
vt 1.000000 1.000000
vt 0.000000 1.000000
vt 0.000000 0.492711
vt 1.000000 0.499950
vt 1.000000 1.000000
vt 0.000000 1.000000
vt 0.000000 0.000000
vt 0.000000 0.618314
vt 1.000000 0.618314
vt 1.000000 1.000000
vt 0.200153 1.000000
vt 0.079556 1.000000
vt 1.000000 0.619698
vt 1.000000 1.000000
vt 1.000000 0.000000
vt 0.000000 0.818560
vt 0.000000 0.499950
vt 1.000000 0.499378
vt 1.000000 1.000000
vt 0.000000 1.000000
vt 1.000000 0.330861
vt 0.000000 0.818510
vt 0.000000 0.499378
vt 1.000000 0.499950
vt 1.000000 1.000000
vt 0.000000 1.000000
vt 1.000000 0.818510
vt 1.000000 1.000000
vt 0.022206 1.000000
vt 0.039959 1.000000
vt 1.000000 0.818560
vt 1.000000 1.000000
vt 0.484046 0.722302
vt 0.495503 1.000000
vt 0.507681 0.162889
vt 0.507681 0.717601
vt 0.418265 0.000000
vt 0.000000 0.000000
vt 1.000000 1.000000
vt 0.000000 1.000000
vt 0.000000 0.000000
vt 1.000000 0.000000
vt 1.000000 1.000000
vt 0.000000 1.000000
vt 0.000000 0.000000
vt 1.000000 0.000000
vt 1.000000 1.000000
vt 0.000000 1.000000
vt 0.000000 0.000000
vt 1.000000 0.000000
vt 1.000000 1.000000
vt 0.000000 1.000000
vt 0.000000 0.000000
vt 1.000000 0.000000
vt 1.000000 1.000000
vt 0.000000 1.000000
vt 0.000000 0.000000
vt 1.000000 0.000000
vt 1.000000 1.000000
vt 0.000000 1.000000
vt 0.000000 0.000000
vt 1.000000 0.000000
vt 1.000000 1.000000
vt 0.000000 1.000000
vt 0.000000 0.000000
vt 1.000000 0.000000
vt 1.000000 1.000000
vt 0.000000 1.000000
vt 0.000000 0.000000
vt 1.000000 0.000000
vt 1.000000 1.000000
vt 0.000000 1.000000
vt 0.000000 0.000000
vt 1.000000 0.000000
vt 1.000000 1.000000
vt 0.000000 1.000000
vt 0.000000 0.000000
vt 1.000000 0.000000
vt 1.000000 1.000000
vt 0.000000 1.000000
vt 0.000000 0.000000
vt 1.000000 0.000000
vt 1.000000 1.000000
vt 0.000000 1.000000
vt 0.000000 0.000000
vt 1.000000 0.000000
vt 1.000000 1.000000
vt 0.000000 1.000000
vt 0.000000 0.000000
vt 1.000000 0.000000
vt 1.000000 1.000000
vt 0.000000 1.000000
vt 0.000000 0.000000
vt 1.000000 0.000000
vt 1.000000 1.000000
vt 0.000000 1.000000
vt 0.000000 0.498731
vt 1.000000 0.500722
vt 1.000000 1.000000
vt 0.000000 1.000000
vt 0.000000 0.000000
vt 1.000000 0.000000
vt 0.000000 0.418767
vt 0.000000 0.000000
vt 1.000000 0.000000
vt 0.000000 0.412280
vt 0.000000 0.498131
vt 1.000000 0.498731
vt 1.000000 1.000000
vt 0.000000 1.000000
vt 0.000000 0.000000
vt 1.000000 0.000000
vt 0.000000 0.421177
vt 0.000000 0.501003
vt 1.000000 0.498131
vt 1.000000 1.000000
vt 0.000000 1.000000
vt 1.000000 0.000000
vt 0.000000 0.418901
vt 0.000000 0.496952
vt 1.000000 0.501003
vt 1.000000 1.000000
vt 0.000000 1.000000
vt 0.000000 0.000000
vt 1.000000 0.000000
vt 0.000000 0.413108
vt 0.000001 0.498308
vt 1.000000 0.496952
vt 1.000000 1.000000
vt 0.000000 1.000000
vt 0.000000 0.000000
vt 1.000000 0.000000
vt 0.000000 0.417731
vt 0.000000 0.500722
vt 1.000000 0.498308
vt 1.000000 1.000000
vt 0.000000 1.000000
vt 0.000115 0.458031
vt 1.000000 0.413108
vt 0.997710 0.458084
vt 1.000000 0.417731
vt 0.999916 0.458084
vt 0.000287 0.457953
vt 1.000000 0.418767
vt 0.999692 0.457943
vt 0.000000 0.458084
vt 1.000000 0.412280
vt 0.991832 0.458084
vt 0.110713 0.458084
vt 1.000000 0.421177
vt 0.999181 0.457709
vt 0.000269 0.458084
vt 1.000000 0.418901
vt 0.875983 0.458084
vt 0.000000 0.458084
vt 1.000000 0.546791
vt 1.000000 1.000000
vt 0.539893 0.000000
vt 0.000000 0.544075
vt 0.000000 1.000000
vt 1.000000 0.000000
vt 0.539893 1.000000
vt 0.539893 0.562698
vt 0.000000 0.000000
vt 1.000000 1.000000
vt 1.000000 0.560076
vt 0.000001 0.565361
vt 0.000000 1.000000
vt 0.418265 0.562109
vt 0.418265 1.000000
vt 0.882593 0.473805
vt 0.418265 0.395742
vt 0.424980 0.473805
vt 1.000000 0.405417
vt 0.975979 0.473805
vt 0.006818 0.470574
vt 0.000000 0.413951
vt 0.000000 0.473805
vt 0.534140 0.473805
vt 0.539893 0.379053
vt 0.539893 0.473805
vt 0.996947 0.470661
vt 1.000000 0.401064
vt 0.992866 0.470425
vt 0.034358 0.473805
vt -0.000000 0.398719
vt 0.000000 0.473805
vt 0.418265 0.473805
vt 0.000000 0.000000
vt 1.000000 0.000000
vt 1.000000 1.000000
vt 0.000000 1.000000
vt 0.000000 0.000000
vt 1.000000 0.000000
vt 1.000000 1.000000
vt 0.000000 1.000000
vn -0.485495 -0.370558 0.791822
vn -0.485495 -0.370558 0.791822
vn -0.458192 -0.150424 0.876033
vn -0.458192 -0.150424 0.876033
vn -0.327624 0.873941 0.359013
vn -0.323937 0.933390 0.154426
vn -0.323937 0.933390 0.154426
vn -0.327624 0.873941 0.359013
vn -0.414663 -0.208774 -0.885702
vn -0.414663 -0.208774 -0.885702
vn -0.417532 -0.374116 -0.828073
vn -0.417532 -0.374116 -0.828073
vn -0.489155 -0.838960 0.238483
vn -0.489155 -0.838960 0.238483
vn -0.489155 -0.838960 0.238483
vn -0.489155 -0.838960 0.238483
vn -0.866524 -0.362587 0.343026
vn -0.914185 -0.355243 0.195109
vn -0.714615 -0.676069 0.179598
vn -0.674657 -0.697649 0.241089
vn -0.410426 0.224600 0.883802
vn -0.410426 0.224600 0.883802
vn -0.406644 0.366035 0.837054
vn -0.406644 0.366035 0.837054
vn -0.806601 0.428655 0.407000
vn -0.885255 0.427032 0.184301
vn -0.954883 0.230498 0.187267
vn -0.882574 0.234571 0.407480
vn -0.411607 0.375859 -0.830246
vn -0.411607 0.375859 -0.830246
vn -0.414675 0.173315 -0.893312
vn -0.414675 0.173315 -0.893312
vn -0.342398 0.915381 -0.211758
vn -0.342398 0.915381 -0.211758
vn -0.370185 0.856057 -0.360734
vn -0.370185 0.856057 -0.360734
vn -0.901636 0.217424 -0.373871
vn -0.952633 0.218936 -0.211087
vn -0.885900 0.412382 -0.212418
vn -0.832694 0.411736 -0.370263
vn -0.781827 -0.615853 -0.097329
vn -0.935258 -0.316469 -0.158559
vn -0.893580 -0.281306 -0.349830
vn -0.775608 -0.551511 -0.307029
vn -0.479301 0.063594 -0.875343
vn -0.479301 0.063594 -0.875343
vn -0.479301 0.063594 -0.875343
vn -0.479301 0.063594 -0.875343
vn -0.949845 -0.011701 -0.312503
vn -0.949845 -0.011701 -0.312503
vn -0.949845 -0.011701 -0.312503
vn -0.949845 -0.011701 -0.312503
vn -0.905762 0.057047 0.419930
vn -0.905762 0.057047 0.419930
vn -0.905762 0.057047 0.419930
vn -0.905762 0.057047 0.419930
vn -0.612790 0.210513 0.761691
vn -0.612790 0.210513 0.761691
vn -0.612790 0.210513 0.761691
vn -0.612790 0.210513 0.761691
vn -0.384523 0.922254 -0.039875
vn -0.411340 0.782404 -0.467593
vn -0.411340 0.782404 -0.467593
vn -0.384523 0.922254 -0.039875
vn -0.279563 0.874684 0.395946
vn -0.279563 0.874684 0.395946
vn -0.331340 0.618894 0.712168
vn -0.331340 0.618894 0.712168
vn -0.331340 0.618894 0.712168
vn -0.331340 0.618894 0.712168
vn -0.559358 0.480394 0.675530
vn -0.559358 0.480394 0.675530
vn -0.559358 0.480394 0.675530
vn -0.559358 0.480394 0.675530
vn -0.309574 0.159967 -0.937323
vn -0.309574 0.159967 -0.937323
vn -0.242053 0.099796 -0.965117
vn -0.242053 0.099796 -0.965117
vn -0.648578 0.172534 -0.741336
vn -0.648578 0.172534 -0.741336
vn -0.632893 0.154015 -0.758766
vn -0.632893 0.154015 -0.758766
vn -0.315492 0.408456 0.856521
vn -0.315492 0.408456 0.856521
vn -0.315492 0.408456 0.856521
vn -0.315492 0.408456 0.856521
vn -0.730184 0.364183 0.578102
vn -0.730184 0.364183 0.578102
vn -0.730184 0.364183 0.578102
vn -0.730184 0.364183 0.578102
vn -0.290774 -0.722331 0.627445
vn -0.290774 -0.722331 0.627445
vn -0.290774 -0.722331 0.627445
vn -0.290774 -0.722331 0.627445
vn -0.405978 -0.628442 0.663508
vn -0.405978 -0.628442 0.663508
vn -0.405978 -0.628442 0.663508
vn -0.405978 -0.628442 0.663508
vn -0.170154 -0.018586 -0.985242
vn -0.377694 0.012855 -0.925841
vn -0.568128 0.043832 -0.821772
vn -0.556757 -0.111545 0.823152
vn -0.556757 -0.111545 0.823152
vn -0.381637 -0.145272 0.912825
vn -0.381637 -0.145272 0.912825
vn -0.709693 -0.073373 0.700680
vn -0.709693 -0.073373 0.700680
vn -0.308330 -0.312179 -0.898597
vn -0.190113 -0.334575 -0.922993
vn -0.199336 -0.569534 -0.797431
vn -0.199336 -0.569534 -0.797431
vn -0.421516 -0.285180 -0.860812
vn -0.303592 -0.503740 -0.808751
vn -0.303592 -0.503740 -0.808751
vn -0.219213 -0.329971 -0.918185
vn -0.219213 -0.329971 -0.918185
vn -0.228983 -0.257996 -0.938619
vn -0.228983 -0.257996 -0.938619
vn -0.236532 -0.638942 0.731988
vn -0.236532 -0.638942 0.731988
vn -0.200204 -0.680790 0.704588
vn -0.200204 -0.680790 0.704588
vn 0.838233 -0.544713 -0.025573
vn 0.820892 -0.495458 -0.284003
vn 0.852693 -0.409617 -0.324236
vn 0.890147 -0.454709 -0.029629
vn -0.940991 -0.327005 -0.087195
vn -0.908279 -0.411303 -0.076553
vn -0.872301 -0.474194 0.119295
vn -0.924978 -0.354371 0.137245
vn -0.991439 0.034757 0.125860
vn -0.991439 0.034757 0.125860
vn -0.997145 0.041573 -0.063036
vn -0.997145 0.041573 -0.063036
vn -0.938179 0.320668 0.130354
vn -0.938179 0.320668 0.130354
vn -0.949506 0.299157 -0.094566
vn -0.949506 0.299157 -0.094566
vn -0.967192 0.046902 -0.249679
vn -0.967192 0.046902 -0.249679
vn -0.912239 0.262335 -0.314645
vn -0.912239 0.262335 -0.314645
vn -0.908657 -0.282838 -0.307155
vn -0.904811 -0.331086 -0.267767
vn 0.797197 -0.556090 0.235035
vn 0.847284 -0.458773 0.267651
vn -0.151332 -0.693422 0.704461
vn -0.151332 -0.693422 0.704461
vn -0.139289 -0.665598 0.733197
vn -0.139289 -0.665598 0.733197
vn 0.902014 -0.431706 0.001348
vn 0.845939 -0.533184 -0.010075
vn 0.812516 -0.539940 0.219736
vn 0.874147 -0.424308 0.236285
vn 0.879344 -0.414916 -0.233666
vn 0.833854 -0.497864 -0.238368
vn -0.206423 -0.282538 -0.936783
vn -0.206423 -0.282538 -0.936783
vn -0.173158 -0.377459 -0.909693
vn -0.173158 -0.377459 -0.909693
vn -0.877384 -0.478911 -0.029019
vn -0.896409 -0.398337 -0.194367
vn -0.894033 -0.418031 -0.161105
vn -0.885068 -0.465406 0.007178
vn -0.828282 -0.543174 0.137516
vn -0.848982 -0.498519 0.175240
vn -0.060114 -0.980237 -0.188475
vn -0.060114 -0.980237 -0.188475
vn -0.060114 -0.980237 -0.188475
vn -0.060114 -0.980237 -0.188475
vn 0.069091 -0.987780 0.139706
vn 0.069091 -0.987780 0.139706
vn 0.069091 -0.987780 0.139706
vn 0.069091 -0.987780 0.139706
vn -0.157160 0.884616 -0.439039
vn -0.157160 0.884616 -0.439039
vn -0.157577 0.887451 -0.433128
vn -0.157577 0.887451 -0.433128
vn -0.158127 0.933741 0.321129
vn -0.158127 0.933741 0.321129
vn -0.156539 0.936475 0.313862
vn -0.156539 0.936475 0.313862
vn -0.179639 0.260315 0.948665
vn -0.179639 0.260315 0.948665
vn -0.180191 0.261694 0.948181
vn -0.180191 0.261694 0.948181
vn -0.169933 0.202479 -0.964430
vn -0.169933 0.202479 -0.964430
vn -0.171575 0.205373 -0.963527
vn -0.171575 0.205373 -0.963527
vn -0.139665 -0.877224 0.459317
vn -0.139665 -0.877224 0.459317
vn -0.142311 -0.873722 0.465142
vn -0.142311 -0.873722 0.465142
vn -0.165673 -0.915471 -0.366695
vn -0.165673 -0.915471 -0.366695
vn -0.162662 -0.923114 -0.348427
vn -0.162662 -0.923114 -0.348427
vn -0.181294 0.263989 0.947334
vn -0.181294 0.263989 0.947334
vn -0.181846 0.264905 0.946973
vn -0.181846 0.264905 0.946973
vn -0.147931 -0.868814 0.472523
vn -0.147931 -0.868814 0.472523
vn -0.150910 -0.867443 0.474098
vn -0.150910 -0.867443 0.474098
vn -0.155943 -0.934429 -0.320194
vn -0.155943 -0.934429 -0.320194
vn -0.152281 -0.938353 -0.310328
vn -0.152281 -0.938353 -0.310328
vn -0.174823 0.210177 -0.961906
vn -0.174823 0.210177 -0.961906
vn -0.176431 0.212087 -0.961193
vn -0.176431 0.212087 -0.961193
vn -0.158023 0.893625 -0.420076
vn -0.158023 0.893625 -0.420076
vn -0.158050 0.896946 -0.412927
vn -0.158050 0.896946 -0.412927
vn -0.153258 0.940372 0.303666
vn -0.153258 0.940372 0.303666
vn -0.151572 0.941581 0.300752
vn -0.151572 0.941581 0.300752
vn -0.235813 0.898024 -0.371409
vn -0.235813 0.898024 -0.371409
vn -0.235813 0.898024 -0.371409
vn -0.235813 0.898024 -0.371409
vn -0.228667 0.930036 0.287654
vn -0.228667 0.930036 0.287654
vn -0.228667 0.930036 0.287654
vn -0.228667 0.930036 0.287654
vn -0.137525 0.243254 0.960164
vn -0.137525 0.243254 0.960164
vn -0.137525 0.243254 0.960164
vn -0.137525 0.243254 0.960164
vn -0.141870 0.162724 -0.976419
vn -0.141870 0.162724 -0.976419
vn -0.141870 0.162724 -0.976419
vn -0.141870 0.162724 -0.976419
vn -0.227597 -0.869641 0.438092
vn -0.227597 -0.869641 0.438092
vn -0.227597 -0.869641 0.438092
vn -0.227597 -0.869641 0.438092
vn -0.239737 -0.919708 -0.310907
vn -0.239737 -0.919708 -0.310907
vn -0.239737 -0.919708 -0.310907
vn -0.239737 -0.919708 -0.310907
vn -0.884802 0.046975 0.463593
vn -0.884802 0.046975 0.463593
vn -0.884802 0.046975 0.463593
vn -0.884802 0.046975 0.463593
vn -0.877572 -0.024750 -0.478805
vn -0.877572 -0.024750 -0.478805
vn -0.877572 -0.024750 -0.478805
vn -0.877572 -0.024750 -0.478805
vn -0.059100 0.004189 -0.998243
vn -0.059100 0.004189 -0.998243
vn -0.059100 0.004189 -0.998243
vn -0.059100 0.004189 -0.998243
vn -0.094089 0.215151 0.972038
vn -0.094089 0.215151 0.972038
vn -0.094089 0.215151 0.972038
vn -0.094089 0.215151 0.972038
vn 0.925413 -0.258486 -0.277119
vn 0.925413 -0.258486 -0.277119
vn 0.925413 -0.258486 -0.277119
vn 0.925413 -0.258486 -0.277119
vn -0.950077 -0.185719 -0.250722
vn -0.950077 -0.185719 -0.250722
vn -0.950077 -0.185719 -0.250722
vn -0.950077 -0.185719 -0.250722
vn -0.960691 0.008541 0.277490
vn -0.960691 0.008541 0.277490
vn -0.960691 0.008541 0.277490
vn -0.960691 0.008541 0.277490
vn 0.966212 -0.146875 0.211808
vn 0.966212 -0.146875 0.211808
vn 0.966212 -0.146875 0.211808
vn 0.966212 -0.146875 0.211808
vn 0.000001 -1.000000 -0.000038
vn 0.000001 -1.000000 -0.000038
vn 0.000001 -1.000000 -0.000038
vn 0.000001 -1.000000 -0.000038
vn -0.000002 -1.000000 -0.000036
vn -0.000002 -1.000000 -0.000036
vn -0.000002 -1.000000 -0.000036
vn -0.000002 -1.000000 -0.000036
vn 0.000000 1.000000 -0.000001
vn 0.000000 1.000000 -0.000001
vn 0.000000 1.000000 -0.000001
vn 0.000000 1.000000 -0.000001
vn -0.960820 0.275781 0.027755
vn -0.960820 0.275781 0.027755
vn -0.960820 0.275781 0.027755
vn -0.960820 0.275781 0.027755
vn 0.000000 -1.000000 0.000000
vn 0.000000 -1.000000 0.000000
vn 0.000000 -1.000000 0.000000
vn 0.000000 -1.000000 0.000000
vn 0.992505 0.114076 0.043821
vn 0.992505 0.114076 0.043821
vn 0.992505 0.114076 0.043821
vn 0.992505 0.114076 0.043821
vn -0.980943 -0.134455 0.140262
vn -0.980943 -0.134455 0.140262
vn -0.980943 -0.134455 0.140262
vn -0.980943 -0.134455 0.140262
vn -0.958374 -0.113170 -0.262131
vn -0.958374 -0.113170 -0.262131
vn -0.958374 -0.113170 -0.262131
vn -0.958374 -0.113170 -0.262131
s 1
g pCube1 pCube2
usemtl initialShadingGroup
f 1/22/1 8/23/2 22/46/3 23/49/4
s 2
f 5/1/5 10/11/6 11/2/7 2/26/8
s 3
f 28/58/9 29/35/10 7/9/11 4/36/12
s off
f 13/14/13 15/6/14 8/7/15 1/8/16
s 5
f 23/49/17 25/27/18 13/30/19 1/22/20
s 1
f 24/24/21 21/25/22 5/1/23 2/26/24
s 5
f 2/26/25 11/40/26 26/31/27 24/24/28
s 3
f 3/5/29 6/37/30 30/38/31 27/39/32
s 2
f 12/3/33 9/4/34 6/37/35 3/5/36
s 5
f 27/55/37 31/32/38 12/33/39 3/34/40
f 14/42/41 32/43/42 28/44/43 4/45/44
s 2
f 10/11/6 9/12/34 12/13/33 11/2/7
s 5
f 11/40/26 12/41/39 31/53/38 26/31/27
f 25/27/18 32/28/42 14/29/41 13/30/19
s off
f 4/36/45 7/9/46 17/17/47 16/16/48
f 14/10/49 4/36/50 16/16/51 18/18/52
f 13/14/53 14/15/54 18/20/55 19/19/56
f 15/6/57 13/14/58 19/19/59 20/21/60
s 1
f 22/46/3 21/47/22 24/48/21 23/49/4
s 5
f 23/49/17 24/50/28 26/51/27 25/27/18
f 25/52/18 26/31/27 31/53/38 32/54/42
f 27/55/37 28/56/43 32/57/42 31/32/38
s 3
f 28/58/9 27/59/32 30/60/31 29/35/10
s 10
f 18/61/61 16/62/62 33/63/63 34/64/64
f 19/65/65 18/66/61 34/67/64 35/68/66
s off
f 20/69/67 19/70/68 36/71/69 37/72/70
f 19/73/71 35/189/72 38/74/73 36/75/74
s 13
f 16/76/75 17/77/76 42/108/77 43/81/78
f 33/78/79 16/79/80 43/80/81 44/82/82
s off
f 37/83/83 36/84/84 46/96/85 47/85/86
f 36/94/87 38/192/88 50/100/89 46/95/90
f 48/90/91 45/91/92 39/92/93 40/93/94
f 45/86/95 49/87/96 41/88/97 39/89/98
s 13
f 43/81/78 42/108/77 61/118/99 59/109/100
f 44/82/82 43/80/81 59/114/100 62/103/101
s 18
f 46/96/102 45/97/103 48/98/104 47/85/105
f 45/99/103 46/95/102 50/100/106 49/101/107
s 13
f 58/104/108 60/105/109 52/106/110 51/107/111
f 63/110/112 58/111/108 51/112/113 53/113/114
s 19
f 53/251/115 51/248/116 112/270/117 114/273/118
s 20
f 39/128/119 41/102/120 107/261/121 108/264/122
s 13
f 59/114/100 58/115/108 63/116/112 62/103/101
f 58/117/108 59/109/100 61/118/99 60/119/109
s 21
f 110/267/123 112/270/124 51/248/125 69/245/126
s 22
f 67/124/127 116/259/128 107/261/129 41/102/130
s 23
f 49/101/131 50/100/132 65/120/133 64/121/134
s 24
f 50/100/135 38/192/136 66/122/137 65/123/138
s 23
f 64/121/134 65/120/133 62/103/139 63/116/140
s 24
f 65/123/138 66/122/137 44/82/141 62/103/142
s 22
f 53/251/143 114/273/144 116/259/128 67/124/127
s 21
f 108/264/145 110/267/123 69/245/126 39/128/146
s 20
f 109/246/147 106/243/148 57/244/149 56/247/150
s 21
f 70/249/151 111/250/152 109/246/153 56/247/154
f 54/252/155 113/253/156 111/250/152 70/249/151
s 19
f 115/254/157 113/253/158 54/252/159 55/255/160
s 22
f 117/256/161 115/254/162 55/255/163 68/257/164
f 106/243/165 117/256/161 68/257/164 57/244/166
s off
f 69/125/167 51/248/168 52/126/169 71/127/170
f 39/128/171 69/129/172 71/130/173 40/131/174
s 27
f 34/211/175 33/212/176 102/240/177 104/213/178
s 28
f 35/218/179 34/219/180 104/226/181 95/220/182
s 29
f 38/188/183 35/189/184 95/228/185 96/190/186
s 30
f 33/78/187 44/205/188 100/237/189 102/206/190
s 31
f 66/191/191 38/192/192 96/231/193 98/193/194
s 32
f 44/198/195 66/199/196 98/234/197 100/200/198
s 29
f 97/194/199 94/195/200 74/196/201 75/197/202
s 31
f 99/201/203 97/202/204 75/203/205 77/204/206
s 32
f 101/207/207 99/208/208 77/209/209 76/210/210
s 30
f 103/214/211 101/215/212 76/216/213 72/217/214
s 27
f 105/221/215 103/222/216 72/223/217 73/224/218
s 28
f 94/184/219 105/185/220 73/186/221 74/187/222
s off
f 73/132/223 72/133/224 78/134/225 79/135/226
f 74/136/227 73/137/228 79/138/229 80/139/230
f 75/140/231 74/141/232 80/142/233 81/143/234
f 72/144/235 76/145/236 82/146/237 78/147/238
f 77/148/239 75/149/240 81/150/241 83/151/242
f 76/152/243 77/153/244 83/154/245 82/155/246
f 80/139/247 79/138/248 83/151/249 81/150/250
f 79/135/251 78/134/252 82/155/253 83/154/254
f 55/156/255 54/157/256 84/158/257 85/159/258
f 90/180/259 91/181/260 92/182/261 93/183/262
f 54/164/263 70/165/264 88/166/265 84/167/266
f 68/168/267 55/169/268 85/170/269 89/171/270
f 57/172/271 68/173/272 89/174/273 87/175/274
f 70/176/275 56/177/276 86/178/277 88/179/278
f 87/175/279 89/174/280 88/179/281 86/178/282
f 84/167/283 88/166/284 89/171/285 85/170/286
f 56/160/287 57/161/288 91/181/289 90/180/290
f 57/161/291 87/162/292 92/182/293 91/181/294
f 87/162/295 86/163/296 93/183/297 92/182/298
f 86/163/299 56/160/300 90/180/301 93/183/302
s 28
f 94/225/219 95/220/182 104/226/181 105/227/220
s 29
f 95/228/185 94/229/200 97/230/199 96/190/186
s 31
f 96/231/193 97/232/204 99/233/203 98/193/194
s 32
f 98/234/197 99/235/208 101/236/207 100/200/198
s 30
f 100/237/189 101/238/212 103/239/211 102/206/190
s 27
f 102/240/177 103/241/216 105/242/215 104/213/178
s 22
f 106/258/165 107/261/129 116/259/128 117/260/161
s 20
f 107/261/121 106/262/148 109/263/147 108/264/122
s 21
f 108/264/145 109/265/153 111/266/152 110/267/123
f 110/267/123 111/268/152 113/269/156 112/270/124
s 19
f 112/270/117 113/271/158 115/272/157 114/273/118
s 22
f 114/273/144 115/274/162 117/275/161 116/259/128
s off
f 64/276/303 67/277/304 41/278/305 49/279/306
f 64/280/307 63/281/308 53/282/309 67/283/310
