#File written by LIBUNFOLD3D. Compilation :Jun 29 2015,14:16:05
mtllib flyman_export.mtl
#begin vertices
v -0.553049 5.457678 1.138824
v -0.827205 8.169354 0.89274
v -0.852594 8.101571 -1.453671
v -0.708568 5.375759 -1.398502
v 1.1e-005 8.427766 1.242004
v 1.1e-005 8.397229 -1.780132
v -1.4e-005 5.295284 -1.829878
v -1.4e-005 5.295284 1.562903
v 7e-006 8.770326 -0.741591
v -1e-006 8.782496 0.155056
v -1.122544 8.462128 0.133949
v -1.099119 8.377837 -0.698225
v -0.658065 5.267744 0.116289
v -0.981195 5.295284 -0.594137
v -5.5e-005 5.033511 0.780899
v -0.677244 4.759976 -1.497946
v -1.4e-005 4.778361 -1.829878
v -0.981195 5.116671 -0.560159
v -0.547907 4.778361 0.410663
v -5.5e-005 4.778435 0.780899
v 0 7.261332 1.691668
v -9e-006 6.126438 1.790881
v -1.228092 6.205963 1.236104
v -1.241988 7.282786 1.139325
v -1.64026 6.213392 0.283243
v -1.617753 7.309476 0.231643
v -1.190912 7.305936 -1.683751
v -1.237614 6.23205 -1.629078
v -1.4e-005 6.272062 -2.160712
v -3e-006 7.356567 -2.213625
v -1.586666 7.305563 -0.687968
v -1.606956 6.223938 -0.65259
v -1.233133 4.640762 -1.134848
v -1.517815 4.895192 -0.532245
v -1.306632 4.680224 0.174216
v -0.782657 4.009233 1.085247
v -0.000128 4.009307 1.333849
v -1.263444 4.009233 0.365133
v -0.556506 1.424929 0.842482
v -0.000259 1.54618 1.336094
v -1.599045 1.420104 0.449082
v -5.7e-005 3.964398 -1.85738
v -0.738111 3.969674 -1.724117
v -1.125651 3.88676 -1.308872
v -0.846772 1.962633 1.42323
v -0.896824 2.863503 1.549969
v 0.008733 2.861698 1.923984
v -0.002369 2.025384 1.790542
v -1.653595 1.972879 0.690201
v -1.618995 2.88426 0.737583
v -0.421974 1.447585 -1.345518
v -2.4e-005 1.44231 -1.509794
v -1.501457 1.447586 -1.097427
v -0.833587 0.169373 -0.753542
v -1.12124 0.169373 -0.738923
v -0.839148 0.169362 -0.451194
v -1.091693 0.169362 -0.474573
v -0.787328 1.981135 -1.697824
v -0.781654 2.842553 -1.764652
v -8.4e-005 1.979925 -1.831181
v -0.00012 2.837152 -1.897919
v -1.472496 2.842429 -1.336931
v -1.56184 1.981262 -1.250038
v -1.782384 1.977285 -0.299018
v -1.75344 2.863171 -0.342161
v -1.541734 3.611385 -0.495074
v -1.732298 1.4241 -0.386285
v -1.15635 0.169368 -0.597081
v -0.179165 1.267688 -0.544477
v -0.790384 0.169368 -0.573621
v -2.5e-005 1.267688 -0.544477
v -3.873749 4.391001 -0.707499
v -3.885654 4.481428 -0.492325
v -3.876823 4.405026 -0.242244
v -3.875016 4.166548 -0.17439
v -3.869254 4.12302 -0.769349
v -3.886654 4.025149 -0.435126
v -4.232079 4.310621 -0.685367
v -4.347272 4.361975 -0.477033
v -4.235152 4.325577 -0.266262
v -4.233346 4.211965 -0.244397
v -4.227584 4.199502 -0.688002
v -4.348272 4.144601 -0.463822
v -0.884548 0.025137 -0.753542
v -1.090724 0.025137 -0.738923
v -0.839148 0.025126 -0.451194
v -1.122246 0.025126 -0.474573
v -0.828218 0.025132 -0.601069
v -1.129466 0.025132 -0.600907
v -0.870936 0.169362 -0.106691
v -1.070895 0.169362 -0.13007
v -1.122246 0.025126 -0.099092
v -0.839148 0.025126 -0.075713
v -2.592884 4.542975 -0.033485
v -2.384638 4.565265 0.000248
v -2.368423 4.075112 0.139199
v -2.575836 4.087597 0.09638
v -2.475434 3.781972 -0.43743
v -2.682718 3.818682 -0.431351
v -2.314971 3.986267 -1.081637
v -2.523192 4.00417 -1.040755
v -2.355528 4.536137 -0.955831
v -2.565411 4.516304 -0.921897
v -2.466669 4.724262 -0.525046
v -2.673488 4.688011 -0.521749
v -1.377353 0.744667 -0.031177
v -1.450322 0.861719 0.06204
v -0.657627 0.85172 0.257154
v -0.694536 0.765235 0.14181
v -0.408476 0.868984 -0.579051
v -0.520631 0.744419 -0.596906
v -0.583561 0.873798 -1.110367
v -0.649055 0.747752 -1.06879
v -1.384798 0.877155 -0.910649
v -1.37143 0.741722 -0.888649
v -1.529885 0.876774 -0.487705
v -1.433973 0.744665 -0.496201
#end vertices

#begin 163 textures vertices 
vt 0.2111413 0.7335925 0
vt 0.1498411 0.6997811 0
vt 0.1113278 0.6970794 0
vt 0.1073436 0.750515 0
vt 0.07082403 0.691965 0
vt 0.205962 0.5230471 0
vt 0.01661152 0.9045615 0
vt 0.02233723 0.9013491 0
vt 0.02791094 0.5461775 0
vt 0.190725 0.8275795 0
vt 0.1559671 0.7498714 0
vt 0.06801424 0.9159038 0
vt 0.1412331 0.8400866 0
vt 0.08519656 0.7658005 0
vt 0.01877637 0.8961437 0
vt 0.06584354 0.5215935 0
vt 0.02939524 0.5215038 0
vt 0.1171475 0.5382516 0
vt 0.1711988 0.5130226 0
vt 0.09762563 0.7760356 0
vt 0.2048576 0.5111395 0
vt 0.2086658 0.5588604 0
vt 0.2407982 0.5490308 0
vt 0.1941589 0.6491804 0
vt 0.2556625 0.6548941 0
vt 0.1899935 0.6950594 0
vt 0.1546135 0.5991992 0
vt 0.02024644 0.922486 0
vt 0.02957048 0.9233948 0
vt 0.1580761 0.5384718 0
vt 0.1513852 0.6464041 0
vt 0.1122085 0.6460869 0
vt 0.1450953 0.9230012 0
vt 0.2158532 0.8640981 0
vt 0.01059465 0.5972343 0
vt 0.06903459 0.5508007 0
vt 0.03040604 0.7122293 0
vt 0.01064279 0.6561496 0
vt 0.06750187 0.6488488 0
vt 0.02357734 0.917509 0
vt 0.08153661 0.9025452 0
vt 0.1160232 0.5469225 0
vt 0.1146819 0.5964442 0
vt 0.3769976 0.8794098 0
vt 0.1957977 0.8847611 0
vt 0.2558419 0.5929407 0
vt 0.1225804 0.9435322 0
vt 0.0754423 0.9159762 0
vt 0.1985607 0.6017809 0
vt 0.07460466 0.9009735 0
vt 0.06837093 0.9016239 0
vt 0.04968192 0.9018679 0
vt 0.01241755 0.9164882 0
vt 0.04961988 0.9178787 0
vt 0.1757255 0.9069883 0
vt 0.04425214 0.905735 0
vt 0.04382779 0.9133627 0
vt 0.07102045 0.5989677 0
vt 0.02774377 0.8952466 0
vt 0.05123518 0.8122121 0
vt 0.1100294 0.7575093 0
vt 0.1212628 0.7513079 0
vt 0.136898 0.7613955 0
vt 0.1016416 0.7500194 0
vt 0.1936592 0.9586307 0
vt 0.3446878 0.9101428 0
vt 0.3466389 0.886168 0
vt 0.2200381 0.911428 0
vt 0.4363582 0.908026 0
vt 0.4053253 0.9016187 0
vt 0.427693 0.8545833 0
vt 0.4631573 0.8682387 0
vt 0.1326754 0.7800121 0
vt 0.3872831 0.8492314 0
vt 0.1206325 0.7803337 0
vt 0.2909971 0.8937401 0
vt 0.2554973 0.9009463 0
vt 0.3178229 0.8786169 0
vt 0.1768392 0.9234057 0
vt 0.1822784 0.8958056 0
vt 0.2783708 0.853518 0
vt 0.3037629 0.8451832 0
vt 0.2268465 0.9114144 0
vt 0.1173501 0.8368774 0
vt 0.4929313 0.8092615 0
vt 0.1498455 0.9004775 0
vt 0.4022799 0.7490668 0
vt 0.3949796 0.7221068 0
vt 0.1255089 0.9926308 0
vt 0.4941946 0.7655631 0
vt 0.4526055 0.7579511 0
vt 0.1168356 0.8466207 0
vt 0.08277121 0.9011588 0
vt 0.07231755 0.8347035 0
vt 0.1425853 0.8498546 0
vt 0.4479097 0.7996868 0
vt 0.20155 0.8792591 0
vt 0.1716921 0.9275368 0
vt 0.09651116 0.839642 0
vt 0.3995356 0.7912642 0
vt 0.2087315 0.9416851 0
vt 0.2444357 0.9600489 0
vt 0.3068987 0.7913189 0
vt 0.1660465 0.8457291 0
vt 0.2299991 0.759394 0
vt 0.04577377 0.820463 0
vt 0.1794696 0.9118791 0
vt 0.2440469 0.8609738 0
vt 0.2698844 0.7982579 0
vt 0.3081168 0.7500634 0
vt 0.2671237 0.7566546 0
vt 0.2540047 0.72539 0
vt 0.3101483 0.7241423 0
vt 0.4524372 0.7187905 0
vt 0.1630336 0.8363198 0
vt 0.114875 0.8914507 0
vt 0.1361009 0.9644663 0
vt 0.2336361 0.8032929 0
vt 0.09893892 0.9619623 0
vt 0.3521607 0.7825237 0
vt 0.3547918 0.7439673 0
vt 0.3448421 0.8284043 0
vt 0.3526334 0.7991261 0
vt 0.2106244 0.9806496 0
vt 0.2522666 0.685232 0
vt 0.2326396 0.7282845 0
vt 0.244091 0.6831936 0
vt 0.2655939 0.9124727 0
vt 0.4443898 0.6506256 0
vt 0.4522427 0.6475527 0
vt 0.4865972 0.7322399 0
vt 0.1776493 0.9932082 0
vt 0.2174685 0.8645367 0
vt 0.09434055 0.8493063 0
vt 0.121429 0.7605221 0
vt 0.1736728 0.9585273 0
vt 0.1900073 0.951849 0
vt 0.02224444 0.8582975 0
vt 0.1316011 0.762554 0
vt 0.06844385 0.8437976 0
vt 0.185369 0.8192758 0
vt 0.174305 0.9645511 0
vt 0.133497 0.7569439 0
vt 0.1097423 0.7795825 0
vt 0.1395306 0.9586492 0
vt 0.1065149 0.7611018 0
vt 0.1114943 0.7625898 0
vt 0.1557609 0.7703236 0
vt 0.1438511 0.7774054 0
vt 0.1158196 0.9480461 0
vt 0.2150053 0.94578 0
vt 0.1651819 0.9302134 0
vt 0.1514681 0.9290037 0
vt 0.1432674 0.7512041 0
vt 0.04644863 0.8959764 0
vt 0.3503678 0.7178584 0
vt 0.01771628 0.9145189 0
vt 0.08282269 0.9127472 0
vt 0.01059465 0.9037809 0
vt 0.02977747 0.9167139 0
vt 0.02780311 0.9032027 0
vt 0.0536829 0.7356072 0
vt 0.2306235 0.7139525 0
#end 163 textures vertices 

#begin 310 normals 
vn -0.485495 -0.370558 0.791822
vn -0.485495 -0.370558 0.791822
vn -0.458192 -0.150424 0.876033
vn -0.458192 -0.150424 0.876033
vn -0.327624 0.873941 0.359013
vn -0.323937 0.93339 0.154426
vn -0.323937 0.93339 0.154426
vn -0.327624 0.873941 0.359013
vn -0.414663 -0.208774 -0.885702
vn -0.414663 -0.208774 -0.885702
vn -0.417532 -0.374116 -0.828073
vn -0.417532 -0.374116 -0.828073
vn -0.489155 -0.83896 0.238483
vn -0.489155 -0.83896 0.238483
vn -0.489155 -0.83896 0.238483
vn -0.489155 -0.83896 0.238483
vn -0.866524 -0.362587 0.343026
vn -0.914185 -0.355243 0.195109
vn -0.714615 -0.676069 0.179598
vn -0.674657 -0.697649 0.241089
vn -0.410426 0.2246 0.883802
vn -0.410426 0.2246 0.883802
vn -0.406644 0.366035 0.837054
vn -0.406644 0.366035 0.837054
vn -0.806601 0.428655 0.407
vn -0.885255 0.427032 0.184301
vn -0.954883 0.230498 0.187267
vn -0.882574 0.234571 0.40748
vn -0.411607 0.375859 -0.830246
vn -0.411607 0.375859 -0.830246
vn -0.414675 0.173315 -0.893312
vn -0.414675 0.173315 -0.893312
vn -0.342398 0.915381 -0.211758
vn -0.342398 0.915381 -0.211758
vn -0.370185 0.856057 -0.360734
vn -0.370185 0.856057 -0.360734
vn -0.901636 0.217424 -0.373871
vn -0.952633 0.218936 -0.211087
vn -0.8859 0.412382 -0.212418
vn -0.832694 0.411736 -0.370263
vn -0.781827 -0.615853 -0.097329
vn -0.935258 -0.316469 -0.158559
vn -0.89358 -0.281306 -0.34983
vn -0.775608 -0.551511 -0.307029
vn -0.479301 0.063594 -0.875343
vn -0.479301 0.063594 -0.875343
vn -0.479301 0.063594 -0.875343
vn -0.479301 0.063594 -0.875343
vn -0.949845 -0.011701 -0.312503
vn -0.949845 -0.011701 -0.312503
vn -0.949845 -0.011701 -0.312503
vn -0.949845 -0.011701 -0.312503
vn -0.905762 0.057047 0.41993
vn -0.905762 0.057047 0.41993
vn -0.905762 0.057047 0.41993
vn -0.905762 0.057047 0.41993
vn -0.61279 0.210513 0.761691
vn -0.61279 0.210513 0.761691
vn -0.61279 0.210513 0.761691
vn -0.61279 0.210513 0.761691
vn -0.384523 0.922254 -0.039875
vn -0.41134 0.782404 -0.467593
vn -0.41134 0.782404 -0.467593
vn -0.384523 0.922254 -0.039875
vn -0.279563 0.874684 0.395946
vn -0.279563 0.874684 0.395946
vn -0.33134 0.618894 0.712168
vn -0.33134 0.618894 0.712168
vn -0.33134 0.618894 0.712168
vn -0.33134 0.618894 0.712168
vn -0.559358 0.480394 0.67553
vn -0.559358 0.480394 0.67553
vn -0.559358 0.480394 0.67553
vn -0.559358 0.480394 0.67553
vn -0.309574 0.159967 -0.937323
vn -0.309574 0.159967 -0.937323
vn -0.242053 0.099796 -0.965117
vn -0.242053 0.099796 -0.965117
vn -0.648578 0.172534 -0.741336
vn -0.648578 0.172534 -0.741336
vn -0.632893 0.154015 -0.758766
vn -0.632893 0.154015 -0.758766
vn -0.315492 0.408456 0.856521
vn -0.315492 0.408456 0.856521
vn -0.315492 0.408456 0.856521
vn -0.315492 0.408456 0.856521
vn -0.730184 0.364183 0.578102
vn -0.730184 0.364183 0.578102
vn -0.730184 0.364183 0.578102
vn -0.730184 0.364183 0.578102
vn -0.290774 -0.722331 0.627445
vn -0.290774 -0.722331 0.627445
vn -0.290774 -0.722331 0.627445
vn -0.290774 -0.722331 0.627445
vn -0.405978 -0.628442 0.663508
vn -0.405978 -0.628442 0.663508
vn -0.405978 -0.628442 0.663508
vn -0.405978 -0.628442 0.663508
vn -0.170154 -0.018586 -0.985242
vn -0.377694 0.012855 -0.925841
vn -0.568128 0.043832 -0.821772
vn -0.556757 -0.111545 0.823152
vn -0.556757 -0.111545 0.823152
vn -0.381637 -0.145272 0.912825
vn -0.381637 -0.145272 0.912825
vn -0.709693 -0.073373 0.70068
vn -0.709693 -0.073373 0.70068
vn -0.30833 -0.312179 -0.898597
vn -0.190113 -0.334575 -0.922993
vn -0.199336 -0.569534 -0.797431
vn -0.199336 -0.569534 -0.797431
vn -0.421516 -0.28518 -0.860812
vn -0.303592 -0.50374 -0.808751
vn -0.303592 -0.50374 -0.808751
vn -0.219213 -0.329971 -0.918185
vn -0.219213 -0.329971 -0.918185
vn -0.228983 -0.257996 -0.938619
vn -0.228983 -0.257996 -0.938619
vn -0.236532 -0.638942 0.731988
vn -0.236532 -0.638942 0.731988
vn -0.200204 -0.68079 0.704588
vn -0.200204 -0.68079 0.704588
vn 0.838233 -0.544713 -0.025573
vn 0.820892 -0.495458 -0.284003
vn 0.852693 -0.409617 -0.324236
vn 0.890147 -0.454709 -0.029629
vn -0.940991 -0.327005 -0.087195
vn -0.908279 -0.411303 -0.076553
vn -0.872301 -0.474194 0.119295
vn -0.924978 -0.354371 0.137245
vn -0.991439 0.034757 0.12586
vn -0.991439 0.034757 0.12586
vn -0.997145 0.041573 -0.063036
vn -0.997145 0.041573 -0.063036
vn -0.938179 0.320668 0.130354
vn -0.938179 0.320668 0.130354
vn -0.949506 0.299157 -0.094566
vn -0.949506 0.299157 -0.094566
vn -0.967192 0.046902 -0.249679
vn -0.967192 0.046902 -0.249679
vn -0.912239 0.262335 -0.314645
vn -0.912239 0.262335 -0.314645
vn -0.908657 -0.282838 -0.307155
vn -0.904811 -0.331086 -0.267767
vn 0.797197 -0.55609 0.235035
vn 0.847284 -0.458773 0.267651
vn -0.151332 -0.693422 0.704461
vn -0.151332 -0.693422 0.704461
vn -0.139289 -0.665598 0.733197
vn -0.139289 -0.665598 0.733197
vn 0.902014 -0.431706 0.001348
vn 0.845939 -0.533184 -0.010075
vn 0.812516 -0.53994 0.219736
vn 0.874147 -0.424308 0.236285
vn 0.879344 -0.414916 -0.233666
vn 0.833854 -0.497864 -0.238368
vn -0.206423 -0.282538 -0.936783
vn -0.206423 -0.282538 -0.936783
vn -0.173158 -0.377459 -0.909693
vn -0.173158 -0.377459 -0.909693
vn -0.877384 -0.478911 -0.029019
vn -0.896409 -0.398337 -0.194367
vn -0.894033 -0.418031 -0.161105
vn -0.885068 -0.465406 0.007178
vn -0.828282 -0.543174 0.137516
vn -0.848982 -0.498519 0.17524
vn -0.060114 -0.980237 -0.188475
vn -0.060114 -0.980237 -0.188475
vn -0.060114 -0.980237 -0.188475
vn -0.060114 -0.980237 -0.188475
vn 0.069091 -0.98778 0.139706
vn 0.069091 -0.98778 0.139706
vn 0.069091 -0.98778 0.139706
vn 0.069091 -0.98778 0.139706
vn -0.15716 0.884616 -0.439039
vn -0.15716 0.884616 -0.439039
vn -0.157577 0.887451 -0.433128
vn -0.157577 0.887451 -0.433128
vn -0.158127 0.933741 0.321129
vn -0.158127 0.933741 0.321129
vn -0.156539 0.936475 0.313862
vn -0.156539 0.936475 0.313862
vn -0.179639 0.260315 0.948665
vn -0.179639 0.260315 0.948665
vn -0.180191 0.261694 0.948181
vn -0.180191 0.261694 0.948181
vn -0.169933 0.202479 -0.96443
vn -0.169933 0.202479 -0.96443
vn -0.171575 0.205373 -0.963527
vn -0.171575 0.205373 -0.963527
vn -0.139665 -0.877224 0.459317
vn -0.139665 -0.877224 0.459317
vn -0.142311 -0.873722 0.465142
vn -0.142311 -0.873722 0.465142
vn -0.165673 -0.915471 -0.366695
vn -0.165673 -0.915471 -0.366695
vn -0.162662 -0.923114 -0.348427
vn -0.162662 -0.923114 -0.348427
vn -0.181294 0.263989 0.947334
vn -0.181294 0.263989 0.947334
vn -0.181846 0.264905 0.946973
vn -0.181846 0.264905 0.946973
vn -0.147931 -0.868814 0.472523
vn -0.147931 -0.868814 0.472523
vn -0.15091 -0.867443 0.474098
vn -0.15091 -0.867443 0.474098
vn -0.155943 -0.934429 -0.320194
vn -0.155943 -0.934429 -0.320194
vn -0.152281 -0.938353 -0.310328
vn -0.152281 -0.938353 -0.310328
vn -0.174823 0.210177 -0.961906
vn -0.174823 0.210177 -0.961906
vn -0.176431 0.212087 -0.961193
vn -0.176431 0.212087 -0.961193
vn -0.158023 0.893625 -0.420076
vn -0.158023 0.893625 -0.420076
vn -0.15805 0.896946 -0.412927
vn -0.15805 0.896946 -0.412927
vn -0.153258 0.940372 0.303666
vn -0.153258 0.940372 0.303666
vn -0.151572 0.941581 0.300752
vn -0.151572 0.941581 0.300752
vn -0.235813 0.898024 -0.371409
vn -0.235813 0.898024 -0.371409
vn -0.235813 0.898024 -0.371409
vn -0.235813 0.898024 -0.371409
vn -0.228667 0.930036 0.287654
vn -0.228667 0.930036 0.287654
vn -0.228667 0.930036 0.287654
vn -0.228667 0.930036 0.287654
vn -0.137525 0.243254 0.960164
vn -0.137525 0.243254 0.960164
vn -0.137525 0.243254 0.960164
vn -0.137525 0.243254 0.960164
vn -0.14187 0.162724 -0.976419
vn -0.14187 0.162724 -0.976419
vn -0.14187 0.162724 -0.976419
vn -0.14187 0.162724 -0.976419
vn -0.227597 -0.869641 0.438092
vn -0.227597 -0.869641 0.438092
vn -0.227597 -0.869641 0.438092
vn -0.227597 -0.869641 0.438092
vn -0.239737 -0.919708 -0.310907
vn -0.239737 -0.919708 -0.310907
vn -0.239737 -0.919708 -0.310907
vn -0.239737 -0.919708 -0.310907
vn -0.884802 0.046975 0.463593
vn -0.884802 0.046975 0.463593
vn -0.884802 0.046975 0.463593
vn -0.884802 0.046975 0.463593
vn -0.877572 -0.02475 -0.478805
vn -0.877572 -0.02475 -0.478805
vn -0.877572 -0.02475 -0.478805
vn -0.877572 -0.02475 -0.478805
vn -0.0591 0.004189 -0.998243
vn -0.0591 0.004189 -0.998243
vn -0.0591 0.004189 -0.998243
vn -0.0591 0.004189 -0.998243
vn -0.094089 0.215151 0.972038
vn -0.094089 0.215151 0.972038
vn -0.094089 0.215151 0.972038
vn -0.094089 0.215151 0.972038
vn 0.925413 -0.258486 -0.277119
vn 0.925413 -0.258486 -0.277119
vn 0.925413 -0.258486 -0.277119
vn 0.925413 -0.258486 -0.277119
vn -0.950077 -0.185719 -0.250722
vn -0.950077 -0.185719 -0.250722
vn -0.950077 -0.185719 -0.250722
vn -0.950077 -0.185719 -0.250722
vn -0.960691 0.008541 0.27749
vn -0.960691 0.008541 0.27749
vn -0.960691 0.008541 0.27749
vn -0.960691 0.008541 0.27749
vn 0.966212 -0.146875 0.211808
vn 0.966212 -0.146875 0.211808
vn 0.966212 -0.146875 0.211808
vn 0.966212 -0.146875 0.211808
vn 1e-006 -1 -3.8e-005
vn 1e-006 -1 -3.8e-005
vn 1e-006 -1 -3.8e-005
vn 1e-006 -1 -3.8e-005
vn -2e-006 -1 -3.6e-005
vn -2e-006 -1 -3.6e-005
vn -2e-006 -1 -3.6e-005
vn -2e-006 -1 -3.6e-005
vn 0 1 -1e-006
vn 0 1 -1e-006
vn 0 1 -1e-006
vn 0 1 -1e-006
vn -0.96082 0.275781 0.027755
vn -0.96082 0.275781 0.027755
vn -0.96082 0.275781 0.027755
vn -0.96082 0.275781 0.027755
vn 0 -1 0
vn 0 -1 0
vn 0 -1 0
vn 0 -1 0
vn 0.992505 0.114076 0.043821
vn 0.992505 0.114076 0.043821
vn 0.992505 0.114076 0.043821
vn 0.992505 0.114076 0.043821
vn -0.980943 -0.134455 0.140262
vn -0.980943 -0.134455 0.140262
vn -0.980943 -0.134455 0.140262
vn -0.980943 -0.134455 0.140262
vn -0.958374 -0.11317 -0.262131
vn -0.958374 -0.11317 -0.262131
vn -0.958374 -0.11317 -0.262131
vn -0.958374 -0.11317 -0.262131
#end 310 normals 

#begin 105 faces
usemtl initialShadingGroup
g pCube1 pCube2
s 1
f 1/22/1 8/23/2 22/46/3 23/49/4 
s 2
f 5/1/5 10/11/6 11/2/7 2/26/8 
s 3
f 28/58/9 29/35/10 7/9/11 4/36/12 
s off
f 13/30/13 15/6/14 8/23/15 1/22/16 
s 5
f 23/49/17 25/27/18 13/30/19 1/22/20 
s 1
f 24/24/21 21/25/22 5/163/23 2/26/24 
s 5
f 2/26/25 11/2/26 26/31/27 24/24/28 
s 3
f 3/5/29 6/37/30 30/38/31 27/39/32 
s 2
f 12/3/33 9/4/34 6/162/35 3/5/36 
s 5
f 27/39/37 31/32/38 12/3/39 3/5/40 
f 14/42/41 32/43/42 28/58/43 4/36/44 
s 2
f 10/11/6 9/4/34 12/3/33 11/2/7 
s 5
f 11/2/26 12/3/39 31/32/38 26/31/27 
f 25/27/18 32/43/42 14/42/41 13/30/19 
s off
f 4/36/45 7/9/46 17/17/47 16/16/48 
f 14/42/49 4/36/50 16/16/51 18/18/52 
f 13/30/53 14/42/54 18/18/55 19/19/56 
f 15/6/57 13/30/58 19/19/59 20/21/60 
s 1
f 22/46/3 21/25/22 24/24/21 23/49/4 
s 5
f 23/49/17 24/24/28 26/31/27 25/27/18 
f 25/27/18 26/31/27 31/32/38 32/43/42 
f 27/39/37 28/58/43 32/43/42 31/32/38 
s 3
f 28/58/9 27/39/32 30/38/31 29/35/10 
s 10
f 18/66/61 16/76/62 33/78/63 34/67/64 
f 19/70/65 18/66/61 34/67/64 35/44/66 
s off
f 20/69/67 19/70/68 36/71/69 37/72/70 
f 19/70/71 35/44/72 38/74/73 36/71/74 
s 13
f 16/76/75 17/77/76 42/108/77 43/81/78 
f 33/78/79 16/76/80 43/81/81 44/82/82 
s off
f 37/72/83 36/71/84 46/96/85 47/85/86 
f 36/71/87 38/74/88 50/100/89 46/96/90 
f 48/90/91 45/91/92 39/114/93 40/131/94 
f 45/91/95 49/87/96 41/88/97 39/114/98 
s 13
f 43/81/78 42/108/77 61/118/99 59/109/100 
f 44/82/82 43/81/81 59/109/100 62/103/101 
s 18
f 46/96/102 45/91/103 48/90/104 47/85/105 
f 45/91/103 46/96/102 50/100/106 49/87/107 
s 13
f 58/111/108 60/105/109 52/126/110 51/112/111 
f 63/110/112 58/111/108 51/112/113 53/113/114 
s 19
f 53/132/115 51/89/116 112/117/117 114/142/118 
s 20
f 39/128/119 41/102/120 107/151/121 108/83/122 
s 13
f 59/109/100 58/111/108 63/110/112 62/103/101 
f 58/111/108 59/109/100 61/118/99 60/105/109 
s 21
f 110/150/123 112/117/124 51/89/125 69/119/126 
s 22
f 67/124/127 116/65/128 107/151/129 41/102/130 
s 23
f 49/87/131 50/100/132 65/120/133 64/121/134 
s 24
f 50/100/135 38/74/136 66/122/137 65/123/138 
s 23
f 64/121/134 65/120/133 62/103/139 63/110/140 
s 24
f 65/123/138 66/122/137 44/82/141 62/103/142 
s 22
f 53/132/143 114/142/144 116/65/128 67/124/127 
s 21
f 108/83/145 110/97/123 69/133/126 39/128/146 
s 20
f 109/68/147 106/101/148 57/79/149 56/107/150 
s 21
f 70/55/151 111/45/152 109/68/153 56/107/154 
f 54/153/155 113/145/156 111/47/152 70/33/151 
s 19
f 115/136/157 113/145/158 54/153/159 55/152/160 
s 22
f 117/137/161 115/136/162 55/152/163 68/98/164 
f 106/101/165 117/137/161 68/98/164 57/79/166 
s off
f 69/125/167 51/112/168 52/126/169 71/127/170 
f 39/114/171 69/129/172 71/130/173 40/131/174 
s 27
f 34/116/175 33/93/176 102/134/177 104/92/178 
s 28
f 35/86/179 34/116/180 104/92/181 95/95/182 
s 29
f 38/80/183 35/86/184 95/95/185 96/104/186 
s 30
f 33/93/187 44/155/188 100/140/189 102/134/190 
s 31
f 66/34/191 38/80/192 96/104/193 98/10/194 
s 32
f 44/155/195 66/138/196 98/106/197 100/140/198 
s 29
f 97/115/199 94/13/200 74/73/201 75/149/202 
s 31
f 99/141/203 97/115/204 75/149/205 77/148/206 
s 32
f 101/94/207 99/60/208 77/14/209 76/20/210 
s 30
f 103/99/211 101/94/212 76/20/213 72/144/214 
s 27
f 105/84/215 103/99/216 72/144/217 73/75/218 
s 28
f 94/13/219 105/84/220 73/75/221 74/73/222 
s off
f 73/75/223 72/144/224 78/147/225 79/135/226 
f 74/73/227 73/75/228 79/135/229 80/139/230 
f 75/149/231 74/73/232 80/139/233 81/63/234 
f 72/144/235 76/20/236 82/146/237 78/147/238 
f 77/148/239 75/149/240 81/63/241 83/154/242 
f 76/20/243 77/14/244 83/64/245 82/146/246 
f 80/139/247 79/135/248 83/62/249 81/143/250 
f 79/135/251 78/147/252 82/61/253 83/62/254 
f 55/7/255 54/157/256 84/53/257 85/159/258 
f 90/57/259 91/56/260 92/52/261 93/54/262 
f 54/157/263 70/40/264 88/28/265 84/53/266 
f 68/8/267 55/7/268 85/159/269 89/15/270 
f 57/161/271 68/8/272 89/15/273 87/59/274 
f 70/40/275 56/160/276 86/29/277 88/28/278 
f 87/51/279 89/50/280 88/48/281 86/12/282 
f 84/158/283 88/48/284 89/50/285 85/41/286 
f 56/160/287 57/161/288 91/56/289 90/57/290 
f 57/161/291 87/59/292 92/52/293 91/56/294 
f 87/51/295 86/12/296 93/54/297 92/52/298 
f 86/29/299 56/160/300 90/57/301 93/54/302 
s 28
f 94/13/219 95/95/182 104/92/181 105/84/220 
s 29
f 95/95/185 94/13/200 97/115/199 96/104/186 
s 31
f 96/104/193 97/115/204 99/141/203 98/10/194 
s 32
f 98/106/197 99/60/208 101/94/207 100/140/198 
s 30
f 100/140/189 101/94/212 103/99/211 102/134/190 
s 27
f 102/134/177 103/99/216 105/84/215 104/92/178 
s 22
f 106/101/165 107/151/129 116/65/128 117/137/161 
s 20
f 107/151/121 106/101/148 109/68/147 108/83/122 
s 21
f 108/83/145 109/68/153 111/45/152 110/97/123 
f 110/150/123 111/47/152 113/145/156 112/117/124 
s 19
f 112/117/117 113/145/158 115/136/157 114/142/118 
s 22
f 114/142/144 115/136/162 117/137/161 116/65/128 
s off
f 64/121/303 67/156/304 41/88/305 49/87/306 
f 64/121/307 63/110/308 53/113/309 67/156/310 
#end 105 faces

#begin properties
#U3DPROPERTIES_00 table {Mesh table {IslandsUVW table {Selected ints { 0 } } SymPlane table {Point vector3d 0 0 0  Normal vector3d 1 0 0  Threshold double 0.01 Enabled bool false } Maps table {Density table {PrimType string "Polygon" Size int 1 DefaultValue double 1 ScaleType string "Log" MinValue double 0.1 MaxValue double 4 Data doubles { r 108 1 } } Pin table {PrimType string "Vertex" Size int 1 DefaultValue double 0 ScaleType string "Normalized" MinValue double 0 MaxValue double 1 Data doubles { r 163 0 } } Protect table {PrimType string "Vertex" Size int 1 DefaultValue double 0 ScaleType string "Normalized" MinValue double -1 MaxValue double 1 Data doubles { r 163 0 } } } } }
#end properties

#begin 0 fatal error vertex (that Unfold3D cannot handle)
#end 0 fatal error vertex (that Unfold3D cannot handle)

#begin 0 error vertex
#end 0 error vertex
